General                          : ChattChitto RG - Movies [R2L]
==========
Complete name                    : Unstoppable 2010 720p BRRip H264 [ChattChitto RG]
Format                           : MPEG-4
Format profile                   : Base Media
Codec ID                         : isom
File size                        : 1.83 GiB
Duration                         : 1h 38mn
Overall bit rate                 : 2 654 Kbps
Encoded date                     : UTC 2011-01-24 06:16:28

Video
==========
ID                               : 1
Format                           : AVC
Format/Info                      : Advanced Video Codec
Format profile                   : High@L4.0
Format settings, CABAC           : Yes
Format settings, ReFrames        : 4 frames
Codec ID                         : avc1
Codec ID/Info                    : Advanced Video Coding
Duration                         : 1h 38mn
Bit rate mode                    : Variable
Bit rate                         : 2 300 Kbps
Maximum bit rate                 : 16.9 Mbps
Width                            : 1 280 pixels
Height                           : 528 pixels
Display aspect ratio             : 2.40:1
Frame rate mode                  : Constant
Frame rate                       : 23.976 fps
Resolution                       : 24 bits
Colorimetry                      : 4:2:0
Scan type                        : Progressive
Bits/(Pixel*Frame)               : 0.142
Stream size                      : 1.58 GiB (87%)
Writing library                  : x264 core 84 r1400M 20fa784
Encoded date                     : UTC 2011-01-24 06:11:54

Audio
==========
ID                               : 2
Format                           : AAC
Format/Info                      : Advanced Audio Codec
Format version                   : Version 4
Format profile                   : LC
Format settings, SBR             : No
Codec ID                         : 40
Duration                         : 1h 38mn
Bit rate mode                    : Variable
Bit rate                         : 352.8 Kbps
Maximum bit rate                 : 428 Kbps
Channel(s)                       : 6 channels
Channel positions                : Front: L C R, Rear: L R, LFE
Sampling rate                    : 48.0 KHz
Resolution                       : 16 bits
Stream size                      : 247 MiB (13%)
Encoded date                     : UTC 2011-01-24 06:17:23

Subtitles                        : English | Portuguese | Spanish


----------------------------------------------------
IMDB Link: http://www.imdb.com/title/tt0477080/
----------------------------------------------------



Screen Shots:
==============    
http://bayimg.com/DAddGaAdi 
http://bayimg.com/daDDhAADi 
http://bayimg.com/dADDJAaDI 
http://bayimg.com/daDdpaAdi 
http://bayimg.com/eadDaAAdi



ScreenShots Comparison:
=========================  
http://screenshotcomparison.com/comparison/22486



Plot:
======
With an unmanned, half-mile-long freight train barreling toward a city, a veteran engineer and a young conductor race against the clock to prevent a catastrophe.



Release Info:
==============
original name .... : Unstoppable 2010 720p BRRip H264 [ChattChitto RG]
ripper.............: CHD
encoder............: Recalled2Life (R2L)
video codec........: H264/.MP4
video bitrate......: 2300 Kbps
audio codec........: AAC-LC
aspect ratio.......: 2.40:1
resolution.........: 1280 x 528
genre..............: Action | Drama | Thriller         
runtime............: 1h 38mn
language...........: English
rating.............: PG-13
subtitles..........: English | Portuguese | Spanish
sample.............: Yes [25.6 MB]
2ch Audio..........: 2ch Audio for XBox Viewers  
Compatibility .....: XBox | PS3 | WD Live    



Source:
========
Unstoppable.2010.BluRay.1080p.DTS.x264-CHD  THANKS!



Notes:
=======
ChattChitto RG Encourages Burning this Film with ConvertXtoDVD.
XBox 360 | PS3 | WD Live - Compatible
Enhanced and Filtered for your viewing pleasure ;)